<?xml version="1.0" encoding="utf-8"?>
<!-- Generated by IcoMoon.io -->
<!DOCTYPE svg PUBLIC "-//W3C//DTD SVG 1.1//EN" "http://www.w3.org/Graphics/SVG/1.1/DTD/svg11.dtd">
<svg version="1.1" xmlns="http://www.w3.org/2000/svg" xmlns:xlink="http://www.w3.org/1999/xlink" width="100" height="100" viewBox="0 0 100 100">
<g>
</g>
	<path d="M87.5 18.75h-25v-6.445c0-3.34-2.715-6.055-6.055-6.055h-12.891c-3.34 0-6.055 2.715-6.055 6.055v6.445h-25c-3.447 0-6.25 2.803-6.25 6.25v50c0 3.447 2.803 6.25 6.25 6.25h75c3.447 0 6.25-2.803 6.25-6.25v-50c0-3.447-2.803-6.25-6.25-6.25zM43.75 14.063c0-0.859 0.703-1.563 1.563-1.563h9.375c0.859 0 1.563 0.703 1.563 1.563v4.688h-12.5v-4.688zM87.5 50h-31.25v6.25h-12.5v-6.25h-31.25v-25h6.25v18.75h62.5v-18.75h6.25v25z" fill="#000000"></path>
</svg>
