<?xml version="1.0" encoding="utf-8"?>
<!-- Generated by IcoMoon.io -->
<!DOCTYPE svg PUBLIC "-//W3C//DTD SVG 1.1//EN" "http://www.w3.org/Graphics/SVG/1.1/DTD/svg11.dtd">
<svg version="1.1" xmlns="http://www.w3.org/2000/svg" xmlns:xlink="http://www.w3.org/1999/xlink" width="81" height="100" viewBox="0 0 81 100">
<g>
</g>
	<path d="M40.625 45.361c-6.012 0-10.889 4.877-10.889 10.889s4.877 10.889 10.889 10.889 10.889-4.877 10.889-10.889c0-0.83-0.11-1.636-0.293-2.411 7.971-9.271 20.313-23.727 26.904-31.964 2.258-2.82-0.226-5.487-3.125-3.125-8.319 6.775-22.687 19.012-31.924 26.913-0.787-0.183-1.608-0.302-2.451-0.302zM43.738 24.988c0-1.724-1.401-3.125-3.125-3.125s-3.125 1.401-3.125 3.125 1.401 3.125 3.125 3.125 3.125-1.401 3.125-3.125zM62.488 49.988c0 1.724 1.404 3.125 3.125 3.125s3.125-1.401 3.125-3.125-1.404-3.125-3.125-3.125-3.125 1.401-3.125 3.125zM28.113 24.988c-1.724 0-3.125 1.401-3.125 3.125s1.401 3.125 3.125 3.125 3.125-1.401 3.125-3.125-1.401-3.125-3.125-3.125zM21.863 37.488c0-1.724-1.401-3.125-3.125-3.125s-3.125 1.401-3.125 3.125 1.401 3.125 3.125 3.125 3.125-1.401 3.125-3.125zM12.488 49.988c0 1.724 1.401 3.125 3.125 3.125s3.125-1.401 3.125-3.125-1.401-3.125-3.125-3.125-3.125 1.401-3.125 3.125zM56.238 28.113c0-1.724-1.404-3.125-3.125-3.125s-3.125 1.401-3.125 3.125 1.404 3.125 3.125 3.125 3.125-1.401 3.125-3.125zM77.429 32.88l-6.714 8.783c0.732 2.655 1.16 5.444 1.16 8.337 0 17.261-13.995 31.25-31.25 31.25s-31.25-13.989-31.25-31.25c0-17.255 13.995-31.25 31.25-31.25 6.433 0 12.402 1.95 17.371 5.283l7.739-5.92c-6.909-5.457-15.613-8.737-25.11-8.737-22.437 0-40.625 18.188-40.625 40.625s18.188 40.625 40.625 40.625 40.625-18.188 40.625-40.625c0-6.125-1.392-11.914-3.821-17.12z" fill="#000000"></path>
</svg>
