<?xml version="1.0" encoding="utf-8"?>
<!-- Generated by IcoMoon.io -->
<!DOCTYPE svg PUBLIC "-//W3C//DTD SVG 1.1//EN" "http://www.w3.org/Graphics/SVG/1.1/DTD/svg11.dtd">
<svg version="1.1" xmlns="http://www.w3.org/2000/svg" xmlns:xlink="http://www.w3.org/1999/xlink" width="75" height="100" viewBox="0 0 75 100">
<g>
</g>
	<path d="M37.5 93.75c-20.706 0-37.5-5.603-37.5-12.5 0-3.772 0-7.898 0-12.5 0-1.086 0.543-2.118 1.324-3.125 4.181 5.383 18.72 9.375 36.176 9.375s31.995-3.992 36.176-9.375c0.781 1.007 1.324 2.039 1.324 3.125 0 3.619 0 7.458 0 12.5 0 6.897-16.797 12.5-37.5 12.5zM37.5 68.75c-20.706 0-37.5-5.603-37.5-12.5 0-3.775 0-7.895 0-12.5 0-0.662 0.25-1.306 0.586-1.944v0c0.189-0.4 0.439-0.793 0.738-1.181 4.181 5.38 18.72 9.375 36.176 9.375s31.995-3.995 36.176-9.375c0.299 0.388 0.549 0.781 0.738 1.181v0c0.336 0.638 0.586 1.282 0.586 1.944 0 3.619 0 7.455 0 12.5 0 6.897-16.797 12.5-37.5 12.5zM37.5 43.75c-20.706 0-37.5-5.6-37.5-12.5 0-1.975 0-4.062 0-6.25 0-1.987 0-4.050 0-6.25 0-6.9 16.794-12.5 37.5-12.5 20.703 0 37.5 5.6 37.5 12.5 0 1.95 0 4.019 0 6.25 0 1.913 0 3.931 0 6.25 0 6.9-16.797 12.5-37.5 12.5zM37.5 12.5c-13.806 0-25 2.792-25 6.25s11.194 6.25 25 6.25 25-2.792 25-6.25-11.194-6.25-25-6.25z" fill="#000000"></path>
</svg>
