<?xml version="1.0" encoding="utf-8"?>
<!-- Generated by IcoMoon.io -->
<!DOCTYPE svg PUBLIC "-//W3C//DTD SVG 1.1//EN" "http://www.w3.org/Graphics/SVG/1.1/DTD/svg11.dtd">
<svg version="1.1" xmlns="http://www.w3.org/2000/svg" xmlns:xlink="http://www.w3.org/1999/xlink" width="63" height="100" viewBox="0 0 63 100">
<g>
</g>
	<path d="M56.25 0h-50c-3.448 0-6.25 2.802-6.25 6.25v87.5c0 3.455 2.802 6.25 6.25 6.25h50c3.455 0 6.25-2.795 6.25-6.25v-87.5c0-3.448-2.795-6.25-6.25-6.25zM28.125 6.25h6.25c1.721 0 3.125 1.401 3.125 3.125s-1.404 3.125-3.125 3.125h-6.25c-1.724 0-3.125-1.401-3.125-3.125s1.401-3.125 3.125-3.125zM34.375 93.75h-6.25c-1.724 0-3.125-1.404-3.125-3.125s1.401-3.125 3.125-3.125h6.25c1.721 0 3.125 1.404 3.125 3.125s-1.404 3.125-3.125 3.125zM56.25 81.25h-50v-62.5h50v62.5z" fill="#000000"></path>
</svg>
