<?xml version="1.0" encoding="utf-8"?>
<!-- Generated by IcoMoon.io -->
<!DOCTYPE svg PUBLIC "-//W3C//DTD SVG 1.1//EN" "http://www.w3.org/Graphics/SVG/1.1/DTD/svg11.dtd">
<svg version="1.1" xmlns="http://www.w3.org/2000/svg" xmlns:xlink="http://www.w3.org/1999/xlink" width="63" height="100" viewBox="0 0 63 100">
<g>
</g>
	<path d="M50 18.75c-6.934 0-12.5 5.566-12.5 12.5 0 4.59 2.539 8.594 6.25 10.742v1.758c0 6.25-6.25 12.5-12.5 12.5-5.176 0-9.277 1.074-12.5 2.832v-29.59c3.711-2.148 6.25-6.152 6.25-10.742 0-6.934-5.566-12.5-12.5-12.5s-12.5 5.566-12.5 12.5c0 4.59 2.539 8.594 6.25 10.742v40.918c-3.711 2.148-6.25 6.152-6.25 10.742 0 6.934 5.566 12.5 12.5 12.5s12.5-5.566 12.5-12.5c0-3.32-1.27-6.25-3.32-8.496 1.855-2.246 4.785-4.004 9.57-4.004 12.5 0 25-12.5 25-25v-1.758c3.711-2.148 6.25-6.152 6.25-10.742 0-6.934-5.566-12.5-12.5-12.5zM12.5 12.5c3.418 0 6.25 2.832 6.25 6.25s-2.832 6.25-6.25 6.25-6.25-2.832-6.25-6.25 2.832-6.25 6.25-6.25zM12.5 87.5c-3.418 0-6.25-2.832-6.25-6.25s2.832-6.25 6.25-6.25 6.25 2.832 6.25 6.25-2.832 6.25-6.25 6.25zM50 37.5c-3.418 0-6.25-2.832-6.25-6.25s2.832-6.25 6.25-6.25 6.25 2.832 6.25 6.25-2.832 6.25-6.25 6.25z" fill="#000000"></path>
</svg>
