<?xml version="1.0" encoding="utf-8"?>
<!-- Generated by IcoMoon.io -->
<!DOCTYPE svg PUBLIC "-//W3C//DTD SVG 1.1//EN" "http://www.w3.org/Graphics/SVG/1.1/DTD/svg11.dtd">
<svg version="1.1" xmlns="http://www.w3.org/2000/svg" xmlns:xlink="http://www.w3.org/1999/xlink" width="81" height="100" viewBox="0 0 81 100">
<g>
</g>
	<path d="M45.576 9.678c-22.269-2.734-42.539 13.102-45.273 35.371s13.102 42.539 35.371 45.273c6.975 0.855 14.171-0.089 20.833-2.924l-0.002-0.003c2.383-1.011 3.495-3.763 2.483-6.146s-3.763-3.495-6.146-2.483l-0-0c-5.124 2.182-10.659 2.91-16.025 2.253-17.13-2.103-29.312-17.695-27.209-34.825s17.695-29.312 34.825-27.209c17.13 2.103 29.312 17.695 27.209 34.825-0.421 3.426-2.104 5.442-6.016 5.442-4.15 0-6.25-4.481-6.25-7.932v-12.256c0-2.589-2.099-4.688-4.688-4.688-0.947 0-1.828 0.282-2.565 0.765-2.508-1.978-5.609-3.308-9.214-3.75-10.278-1.262-19.633 6.047-20.895 16.325s6.047 19.633 16.325 20.895c5.603 0.688 11.349-1.436 15.417-5.188 2.437 2.746 5.846 4.651 9.777 5.133 8.565 1.052 16.361-5.039 17.413-13.604 2.734-22.269-13.102-42.539-35.371-45.273zM49.93 51.142c-0.631 5.139-5.309 8.794-10.448 8.163s-8.794-5.309-8.163-10.448c0.631-5.139 5.309-8.794 10.448-8.163s8.794 5.309 8.163 10.448z" fill="#000000"></path>
</svg>
