<?xml version="1.0" encoding="utf-8"?>
<!-- Generated by IcoMoon.io -->
<!DOCTYPE svg PUBLIC "-//W3C//DTD SVG 1.1//EN" "http://www.w3.org/Graphics/SVG/1.1/DTD/svg11.dtd">
<svg version="1.1" xmlns="http://www.w3.org/2000/svg" xmlns:xlink="http://www.w3.org/1999/xlink" width="50" height="100" viewBox="0 0 50 100">
<g>
</g>
	<path d="M43.75 18.75c0-10.352-8.392-18.75-18.75-18.75s-18.75 8.398-18.75 18.75c0 10.358 8.392 18.75 18.75 18.75s18.75-8.392 18.75-18.75zM25 31.25c-6.9 0-12.5-5.6-12.5-12.5s5.6-12.5 12.5-12.5c6.897 0 12.5 5.6 12.5 12.5s-5.603 12.5-12.5 12.5zM37.5 37.5h-25c-6.9 0-12.5 5.6-12.5 12.5v12.5c0 6.897 5.6 12.5 12.5 12.5v25h25v-25c6.897 0 12.5-5.603 12.5-12.5v-12.5c0-6.9-5.603-12.5-12.5-12.5zM43.75 62.5c0 3.455-2.795 6.25-6.25 6.25v-12.5h-6.25v37.5h-12.5v-37.5h-6.25v12.5c-3.448 0-6.25-2.795-6.25-6.25v-12.5c0-3.448 2.802-6.25 6.25-6.25h25c3.455 0 6.25 2.802 6.25 6.25v12.5z" fill="#000000"></path>
</svg>
