<?xml version="1.0" encoding="utf-8"?>
<!-- Generated by IcoMoon.io -->
<!DOCTYPE svg PUBLIC "-//W3C//DTD SVG 1.1//EN" "http://www.w3.org/Graphics/SVG/1.1/DTD/svg11.dtd">
<svg version="1.1" xmlns="http://www.w3.org/2000/svg" xmlns:xlink="http://www.w3.org/1999/xlink" width="95" height="100" viewBox="0 0 95 100">
<g>
</g>
	<path d="M93.75 81.25l-24.329-24.329c3.473-5.67 5.579-12.277 5.579-19.421 0-20.706-16.797-37.5-37.5-37.5-20.706 0-37.5 16.794-37.5 37.5 0 20.703 16.794 37.5 37.5 37.5 7.144 0 13.751-2.106 19.421-5.566l24.329 24.316c1.709 1.709 4.541 1.697 6.25 0l6.25-6.25c1.709-1.709 1.709-4.541 0-6.25zM37.5 62.5c-13.806 0-25-11.194-25-25s11.194-25 25-25 25 11.194 25 25-11.194 25-25 25z" fill="#000000"></path>
</svg>
