<?xml version="1.0" encoding="utf-8"?>
<!-- Generated by IcoMoon.io -->
<!DOCTYPE svg PUBLIC "-//W3C//DTD SVG 1.1//EN" "http://www.w3.org/Graphics/SVG/1.1/DTD/svg11.dtd">
<svg version="1.1" xmlns="http://www.w3.org/2000/svg" xmlns:xlink="http://www.w3.org/1999/xlink" width="100" height="100" viewBox="0 0 100 100">
<g>
</g>
	<path d="M60.262 38.087c-2.133 0-4.117 0.992-5.958 2.979-1.296 1.3-2.083 2.825-2.358 4.587 0.863-0.546 1.612-0.817 2.254-0.817 0.663 0 1.208 0.292 1.638 0.883 0.829 1.158 0.783 2.621-0.137 4.379-2.038 3.892-3.525 5.833-4.442 5.833-0.65 0-1.483-2.175-2.508-6.529-0.179-0.646-0.367-1.575-0.554-2.779-0.188-1.2-0.367-2.242-0.554-3.125-0.188-0.879-0.462-1.783-0.833-2.704s-0.833-1.6-1.388-2.012c-0.392-0.288-0.842-0.433-1.363-0.433-0.229 0-0.467 0.029-0.721 0.088-1.204 0.279-2.596 1.021-4.167 2.225-1.579 1.2-2.871 2.358-3.892 3.471l-1.392 1.667 1.254 1.663c0.188-0.183 0.417-0.371 0.692-0.554 0.275-0.188 0.788-0.421 1.529-0.696 0.317-0.117 0.588-0.179 0.796-0.179 0.288 0 0.483 0.104 0.596 0.317 0.275 0.371 1.129 2.988 2.563 7.85 1.442 4.862 2.342 7.663 2.708 8.404 0.65 1.296 1.529 2.292 2.637 2.987 0.542 0.333 1.129 0.504 1.779 0.504 0.688 0 1.442-0.196 2.25-0.579 2.504-1.663 5.371-4.442 8.613-8.333 3.242-3.887 5.229-8.008 5.971-12.358 0.65-3.796-0.458-5.975-3.329-6.529-0.575-0.146-1.133-0.208-1.683-0.208z" fill="#000000"></path>
	<path d="M50 87.5c-20.679 0-37.5-16.821-37.5-37.5s16.821-37.5 37.5-37.5 37.5 16.821 37.5 37.5-16.821 37.5-37.5 37.5zM50 20.833c-16.079 0-29.167 13.088-29.167 29.167s13.087 29.167 29.167 29.167 29.167-13.088 29.167-29.167-13.088-29.167-29.167-29.167z" fill="#000000"></path>
</svg>
