<?xml version="1.0" encoding="utf-8"?>
<!-- Generated by IcoMoon.io -->
<!DOCTYPE svg PUBLIC "-//W3C//DTD SVG 1.1//EN" "http://www.w3.org/Graphics/SVG/1.1/DTD/svg11.dtd">
<svg version="1.1" xmlns="http://www.w3.org/2000/svg" xmlns:xlink="http://www.w3.org/1999/xlink" width="100" height="100" viewBox="0 0 100 100">
<g>
</g>
	<path d="M41.804 63.75h-6.667v-21.663h6.667v21.663zM38.471 39.308c-2.404 0-3.608-1.112-3.608-3.333 0-0.929 0.342-1.717 1.042-2.363 0.692-0.646 1.546-0.971 2.567-0.971 2.404 0 3.608 1.117 3.608 3.337s-1.2 3.329-3.608 3.329zM66.529 63.75h-6.804v-12.083c0-3.146-1.117-4.721-3.338-4.721-1.758 0-2.912 0.879-3.475 2.638-0.179 0.279-0.275 0.837-0.275 1.667v12.5h-6.804v-14.721c0-3.333-0.050-5.646-0.138-6.942h5.833l0.417 2.913c1.529-2.317 3.75-3.471 6.804-3.471 2.321 0 4.192 0.808 5.625 2.429 1.442 1.621 2.158 3.958 2.158 7.017v12.775z" fill="#000000"></path>
	<path d="M50 87.5c-20.679 0-37.5-16.821-37.5-37.5s16.821-37.5 37.5-37.5 37.5 16.821 37.5 37.5-16.821 37.5-37.5 37.5zM50 20.833c-16.079 0-29.167 13.088-29.167 29.167s13.087 29.167 29.167 29.167 29.167-13.088 29.167-29.167-13.088-29.167-29.167-29.167z" fill="#000000"></path>
</svg>
