<?xml version="1.0" encoding="utf-8"?>
<!-- Generated by IcoMoon.io -->
<!DOCTYPE svg PUBLIC "-//W3C//DTD SVG 1.1//EN" "http://www.w3.org/Graphics/SVG/1.1/DTD/svg11.dtd">
<svg version="1.1" xmlns="http://www.w3.org/2000/svg" xmlns:xlink="http://www.w3.org/1999/xlink" width="100" height="100" viewBox="0 0 100 100">
<g>
</g>
	<path d="M76.475 23.433c-7.292-7.254-16.2-10.933-26.475-10.933-10.371 0-19.304 3.683-26.554 10.938-7.262 7.254-10.946 16.196-10.946 26.563 0 10.271 3.679 19.179 10.933 26.475 7.254 7.317 16.192 11.025 26.567 11.025 10.279 0 19.188-3.708 26.483-11.013 7.313-7.304 11.017-16.217 11.017-26.488 0-10.367-3.708-19.308-11.025-26.567zM70.592 70.596c-4.738 4.746-10.15 7.45-16.425 8.271v-20.533h8.333v-8.333h-8.333v-5.833c0-1.379 1.121-2.5 2.504-2.5h5.829v-8.333h-5.821c-3.092 0-5.671 1.138-7.737 3.425-2.067 2.279-3.108 5.063-3.108 8.367v4.875h-8.333v8.333h8.333v20.542c-6.342-0.813-11.775-3.521-16.487-8.267-5.729-5.767-8.512-12.508-8.512-20.608 0-8.192 2.779-14.95 8.508-20.667 5.708-5.721 12.467-8.5 20.658-8.5 8.104 0 14.842 2.783 20.604 8.513 5.763 5.717 8.563 12.475 8.563 20.654 0 8.087-2.804 14.829-8.575 20.596z" fill="#000000"></path>
</svg>
