<?xml version="1.0" encoding="utf-8"?>
<!-- Generated by IcoMoon.io -->
<!DOCTYPE svg PUBLIC "-//W3C//DTD SVG 1.1//EN" "http://www.w3.org/Graphics/SVG/1.1/DTD/svg11.dtd">
<svg version="1.1" xmlns="http://www.w3.org/2000/svg" xmlns:xlink="http://www.w3.org/1999/xlink" width="100" height="100" viewBox="0 0 100 100">
<g>
</g>
	<path d="M50 87.5c-20.679 0-37.5-16.821-37.5-37.5s16.821-37.5 37.5-37.5 37.5 16.821 37.5 37.5-16.821 37.5-37.5 37.5zM50 20.833c-16.079 0-29.167 13.088-29.167 29.167s13.087 29.167 29.167 29.167 29.167-13.088 29.167-29.167-13.088-29.167-29.167-29.167z" fill="#000000"></path>
	<path d="M51.396 33.333c-10.283 0-15.467 7.375-15.467 13.517 0 3.729 1.408 7.033 4.429 8.267 0.496 0.204 0.942 0.008 1.087-0.538 0.096-0.383 0.333-1.342 0.438-1.742 0.146-0.538 0.087-0.729-0.308-1.204-0.871-1.025-1.433-2.358-1.433-4.246 0-5.467 4.092-10.362 10.658-10.362 5.817 0 9.004 3.554 9.004 8.292 0 6.242-2.758 11.508-6.858 11.508-2.262 0-3.958-1.871-3.417-4.171 0.65-2.742 1.912-5.7 1.912-7.679 0-1.775-0.954-3.246-2.917-3.246-2.317 0-4.175 2.392-4.175 5.6 0 2.042 0.692 3.425 0.692 3.425s-2.371 10.033-2.787 11.792c-0.825 3.5-0.121 7.792-0.063 8.225 0.033 0.258 0.362 0.321 0.512 0.125 0.217-0.279 2.971-3.688 3.908-7.083 0.267-0.958 1.525-5.946 1.525-5.946 0.75 1.433 2.946 2.692 5.283 2.692 6.958 0 11.679-6.337 11.679-14.833-0.004-6.408-5.442-12.392-13.704-12.392z" fill="#000000"></path>
</svg>
