<?xml version="1.0" encoding="utf-8"?>
<!-- Generated by IcoMoon.io -->
<!DOCTYPE svg PUBLIC "-//W3C//DTD SVG 1.1//EN" "http://www.w3.org/Graphics/SVG/1.1/DTD/svg11.dtd">
<svg version="1.1" xmlns="http://www.w3.org/2000/svg" xmlns:xlink="http://www.w3.org/1999/xlink" width="100" height="100" viewBox="0 0 100 100">
<g>
</g>
	<path d="M63.663 42.846c1.492-0.921 2.487-2.171 2.971-3.767-1.454 0.775-2.904 1.3-4.354 1.596-1.3-1.4-2.95-2.113-4.925-2.113-1.933 0-3.563 0.679-4.896 1.996-1.321 1.325-1.992 2.942-1.992 4.825 0 0.571 0.071 1.083 0.217 1.517-5.7-0.2-10.413-2.558-14.129-7.108-0.629 1.113-0.946 2.246-0.946 3.417 0 2.408 1.017 4.317 3.042 5.721-1.154-0.096-2.171-0.392-3.042-0.871 0 1.721 0.504 3.158 1.521 4.425 1.013 1.25 2.321 2.050 3.913 2.387-0.579 0.15-1.188 0.221-1.813 0.221-0.583 0-0.987-0.050-1.233-0.154 0.433 1.404 1.233 2.538 2.392 3.408 1.154 0.875 2.487 1.333 3.987 1.375-2.462 1.938-5.287 2.892-8.479 2.892-0.783 0-1.333-0.008-1.667-0.071 3.142 2.038 6.642 3.054 10.504 3.054 3.963 0 7.467-1.004 10.508-3.013 3.042-1.996 5.296-4.458 6.737-7.363 1.45-2.896 2.171-5.912 2.171-9.058v-0.871c1.4-1.054 2.538-2.242 3.408-3.558-1.242 0.554-2.546 0.925-3.896 1.113z" fill="#000000"></path>
	<path d="M50 87.5c-10.375 0-19.313-3.708-26.567-11.025-7.254-7.296-10.933-16.204-10.933-26.475 0-10.367 3.683-19.308 10.946-26.563 7.25-7.254 16.183-10.938 26.554-10.938 10.275 0 19.183 3.679 26.475 10.933 7.317 7.258 11.025 16.2 11.025 26.567 0 10.271-3.704 19.183-11.017 26.487-7.296 7.304-16.204 11.013-26.483 11.013zM50 20.833c-8.192 0-14.95 2.779-20.658 8.5-5.729 5.717-8.508 12.475-8.508 20.667 0 8.1 2.783 14.842 8.512 20.604 5.717 5.763 12.471 8.563 20.654 8.563 8.096 0 14.833-2.804 20.592-8.571 5.771-5.767 8.575-12.508 8.575-20.596 0-8.179-2.8-14.938-8.563-20.654-5.763-5.729-12.5-8.513-20.604-8.513z" fill="#000000"></path>
</svg>
